<?xml version="1.0" encoding="UTF-8"?>
<svg id="a" data-name="Layer 1" xmlns="http://www.w3.org/2000/svg" viewBox="0 0 252.9 157.36">
  <defs></defs>
  <path class="b" d="m228.39,22.27h-63.37V6.53h63.37v15.74h0Zm-105.55,64.54c4.09,6.33,6.13,14.02,6.13,23.05s-2.3,17.71-6.99,25.11c-2.98,4.9-6.68,9.03-11.13,12.36-5.01,3.85-10.94,6.49-17.76,7.9-6.84,1.42-14.24,2.13-22.22,2.13H0V0h76c19.16.31,32.74,5.86,40.76,16.76,4.81,6.68,7.2,14.7,7.2,24.03s-2.41,17.32-7.27,23.17c-2.7,3.28-6.7,6.26-11.98,8.96,8.01,2.93,14.08,7.55,18.14,13.9Zm-86.54-24.77h33.3c6.84,0,12.38-1.3,16.64-3.9,4.26-2.6,6.38-7.21,6.38-13.84,0-7.32-2.81-12.18-8.45-14.52-4.85-1.62-11.05-2.46-18.57-2.46h-29.29v34.71Zm59.52,45.58c0-8.17-3.34-13.83-10.01-16.86-3.73-1.72-8.99-2.6-15.74-2.67h-33.78v41.94h33.25c6.83,0,12.12-.89,15.94-2.76,6.88-3.43,10.33-9.96,10.33-19.65Zm156.08-25.6c.76,5.15,1.11,12.62.97,22.38h-82.07c.45,11.33,4.36,19.25,11.78,23.78,4.47,2.84,9.9,4.23,16.24,4.23,6.7,0,12.15-1.69,16.35-5.17,2.29-1.84,4.31-4.45,6.05-7.73h30.08c-.79,6.69-4.41,13.48-10.92,20.37-10.09,10.96-24.23,16.46-42.39,16.46-15.01,0-28.23-4.63-39.71-13.87-11.44-9.27-17.19-24.3-17.19-45.15,0-19.55,5.16-34.52,15.51-44.94,10.39-10.44,23.8-15.63,40.32-15.63,9.8,0,18.63,1.75,26.5,5.27,7.85,3.52,14.35,9.07,19.46,16.69,4.64,6.71,7.61,14.47,9,23.31Zm-29.61,2.94c-.55-7.83-3.17-13.76-7.88-17.81-4.67-4.06-10.5-6.1-17.47-6.1-7.58,0-13.43,2.18-17.58,6.47-4.18,4.28-6.79,10.09-7.86,17.45h50.79Z"/>
</svg>