<?xml version="1.0" encoding="iso-8859-1"?>
<!-- Generator: Adobe Illustrator 23.0.1, SVG Export Plug-In . SVG Version: 6.00 Build 0)  -->
<svg version="1.1" id="Layer_1" xmlns="http://www.w3.org/2000/svg" xmlns:xlink="http://www.w3.org/1999/xlink" x="0px" y="0px"
	 width="2222px" height="1250px" viewBox="0 0 2222 1250" enable-background="new 0 0 2222 1250" xml:space="preserve">
<g>
	<path d="M104.129,97.678v73.616c17.376-10.215,36.285-10.221,36.285-10.221v0.023h20.496v22.028h-20.629v-0.002
		c-2.348,0.055-36.152,1.567-36.152,42.603v35.99H75.7V75.577h28.429v0.019h59.198v22.083H104.129z"/>
	<path d="M261.641,239.647v21.896h-89.004V75.199h28.429v164.449H261.641z"/>
	<path d="M365.206,261.417l-21.83-45.5h-9.593v-0.002c-2.348,0.055-36.152,1.567-36.152,42.602v2.9h-28.429V75.13h28.523
		l89.371,186.287H365.206z M332.812,193.895l-35.18-73.33v83.521C312.52,195.333,328.531,194.074,332.812,193.895z"/>
	<path d="M459.315,261.442l-30.095-48.787c-3.806,0.457-6.159,0.465-6.159,0.465v48.321h-28.43V75.155h28.43
		c0,0,65.166,0.2,65.166,72.679c0,32.102-15.853,48.414-31.92,56.708l35.099,56.9H459.315z M423.062,191.226
		c0,0,36.736,0,36.736-43.392c0-50.75-36.736-50.75-36.736-50.75V191.226z"/>
	<path d="M591.721,239.824v21.89h-92.753V75.577h28.429v0.019h59.198v22.083h-59.198v72.151
		c17.376-10.215,36.285-10.221,36.285-10.221v0.023h20.496v22.028H563.55v-0.002c-2.348,0.055-36.152,1.567-36.152,42.603v15.565
		H591.721z"/>
	<path d="M718.686,261.072c-0.002,0-0.003,0-0.005,0v0.494h-92.867v0.013h-28.429V75.596h28.429c0,0,64.714,0,64.714,64.67
		c0,13.248,0,34.126,0,40.929c16.249,12.247,28.012,30.958,28.15,58.356h0.003v0.177c0,0.103,0.005,0.202,0.005,0.305
		C718.686,240.209,718.686,260.896,718.686,261.072z M625.814,161.198c11.057,0.031,23.823,1.716,36.285,5.679
		c0-9.329,0-20.34,0-26.63c0-42.698-36.285-42.698-36.285-42.698V161.198z M625.814,239.551h64.437
		c-0.27-38.238-29.524-56.41-64.437-56.517V239.551z"/>
	<path d="M820.292,261.417l-21.829-45.5h-9.593v-0.002c-2.348,0.055-36.152,1.567-36.152,42.602v2.9H724.29V75.13h28.522
		l89.371,186.287H820.292z M787.899,193.895l-35.181-73.33v83.521C767.607,195.333,783.619,194.074,787.899,193.895z"/>
	<path d="M941.012,136.401h-28.43v-38.76c0,0-36.284,0.094-36.284,42.605c0,2.955,0,6.12,0,9.229h0.001v18.906
		c0,0,0,16.125,0,28.532c0,41.035,33.804,42.546,36.151,42.602v-0.002h28.541v22.028h-28.408v0.023c0,0-64.714,0-64.714-64.67
		c0-3.24,0-6.332,0-9.211v-18.906c0,0,0-12.51,0-28.514c0-64.669,64.713-64.669,64.713-64.669h28.43V136.401z"/>
	<path d="M1047.4,261.485l-35.969-76.952l-34.496,76.952h-28.43V75.199h28.43v137.454l61.62-137.454h21.891l-35.302,78.747
		l50.686,107.539H1047.4z"/>
</g>
<g>
</g>
<g>
</g>
<g>
</g>
<g>
</g>
<g>
</g>
<g>
</g>
</svg>
